<?xml version="1.0" standalone="no"?>
<!DOCTYPE svg PUBLIC "-//W3C//DTD SVG 20010904//EN"
 "http://www.w3.org/TR/2001/REC-SVG-20010904/DTD/svg10.dtd">
 <!-- originally 2604.000000px -->
<svg version="1.0" xmlns="http://www.w3.org/2000/svg"
 viewBox="0 0 1604.000000 1604.000000"
 preserveAspectRatio="xMidYMid meet">
<metadata>
Created by potrace 1.13, written by Peter Selinger 2001-2015
</metadata>
<g transform="translate(0.000000,2604.000000) scale(0.100000,-0.100000)"
fill="#242527" stroke="none">
<path d="M12715 19951 c-115 -41 -215 -89 -221 -106 -3 -8 2 -37 11 -64 19
-57 15 -67 -29 -88 -47 -22 -74 -38 -97 -59 -19 -17 -23 -18 -82 -2 -76 20
-95 11 -132 -62 -20 -39 -25 -65 -26 -122 l0 -73 -20 61 c-22 72 -70 121 -144
149 -57 22 -73 15 -92 -40 -25 -74 -36 -75 -114 -14 -49 38 -76 38 -83 -1 -19
-99 -19 -99 -27 -40 -6 44 -4 61 12 92 36 70 17 94 -61 82 -39 -6 -50 2 -79
59 -23 47 -44 45 -80 -6 -31 -45 -56 -57 -122 -57 -42 0 -77 40 -81 92 -3 39
-6 43 -28 42 -14 -1 -42 -9 -62 -18 -38 -16 -38 -16 -60 11 -55 65 -57 66
-111 60 -60 -8 -92 -27 -119 -73 -25 -42 -52 -47 -41 -6 10 42 6 62 -18 88
-40 43 -87 50 -162 25 -36 -12 -71 -29 -77 -37 -15 -18 -48 -18 -91 -1 -34 14
-159 10 -174 -5 -4 -3 -9 -26 -12 -50 -3 -24 -12 -55 -19 -70 -8 -15 -14 -38
-14 -50 0 -13 -16 -48 -35 -78 -27 -42 -35 -65 -35 -101 0 -38 -6 -55 -32 -87
-22 -27 -38 -39 -48 -35 -88 34 -88 34 -138 9 -70 -35 -142 -42 -191 -16 -22
11 -46 20 -54 20 -30 0 -87 -88 -87 -135 l0 -26 -29 20 c-51 37 -65 29 -95
-51 -15 -42 -23 -49 -57 -60 -47 -14 -69 -40 -69 -83 0 -36 -70 -148 -79 -125
-3 8 -12 35 -21 60 -19 57 -85 106 -161 120 -30 6 -66 19 -80 30 -40 29 -69
33 -118 15 -24 -8 -61 -15 -83 -15 -51 0 -67 -9 -135 -78 -77 -78 -131 -148
-138 -184 -6 -24 -9 -27 -21 -17 -8 6 -23 31 -33 54 -24 55 -91 142 -115 151
-15 5 -30 -6 -67 -47 -55 -63 -67 -61 -110 12 -24 42 -27 44 -79 47 -29 2 -58
-2 -63 -7 -22 -22 -72 -11 -126 25 -35 24 -70 39 -99 42 l-44 5 7 36 c4 20 9
49 12 64 4 22 -1 35 -25 60 -17 18 -42 57 -56 88 -16 37 -39 68 -67 90 -38 30
-48 33 -100 31 -43 -2 -70 3 -100 18 -22 12 -50 20 -62 18 -19 -3 -22 -9 -22
-53 0 -27 -4 -55 -8 -62 -4 -6 -36 -14 -71 -18 -35 -4 -69 -10 -76 -15 -6 -4
-18 -36 -25 -70 -13 -61 -12 -65 12 -115 15 -29 23 -59 20 -67 -3 -9 -26 -21
-52 -27 -66 -17 -155 -100 -155 -146 0 -18 -6 -38 -13 -44 -8 -6 -19 -29 -26
-50 -6 -22 -17 -43 -24 -48 -6 -4 -50 -7 -97 -8 -113 -2 -130 -12 -130 -74 0
-43 -6 -57 -47 -111 -27 -35 -54 -73 -62 -85 -8 -12 -29 -32 -47 -45 -44 -30
-47 -44 -24 -120 11 -36 20 -66 20 -67 0 -1 -30 11 -67 28 -38 17 -78 43 -91
60 -28 34 -48 37 -71 8 -17 -21 -20 -21 -71 -9 l-54 13 -33 -39 c-48 -56 -51
-79 -20 -135 39 -68 36 -75 -33 -95 -93 -26 -93 -24 -14 -131 22 -31 12 -50
-40 -73 -51 -22 -61 -36 -70 -105 -4 -35 -1 -58 9 -78 19 -37 12 -51 -36 -73
-23 -10 -53 -32 -67 -50 -15 -17 -59 -52 -98 -77 -39 -26 -78 -57 -87 -70 -9
-14 -40 -33 -75 -46 l-60 -23 -47 21 -48 21 -59 -22 c-54 -19 -63 -27 -90 -75
-17 -30 -48 -66 -72 -83 -54 -38 -122 -106 -150 -150 l-22 -35 -89 2 c-221 6
-257 1 -302 -39 -29 -27 -56 -113 -48 -155 8 -45 -8 -70 -56 -85 -32 -9 -48
-22 -70 -57 -42 -66 -43 -80 -15 -141 30 -65 23 -80 -38 -80 -22 0 -54 -7 -70
-15 -15 -8 -38 -15 -50 -15 -31 0 -41 -10 -70 -67 -28 -56 -43 -63 -86 -38
-42 24 -72 18 -118 -24 -23 -21 -42 -47 -42 -57 0 -24 27 -110 47 -149 9 -16
23 -43 31 -58 10 -21 12 -44 7 -83 -6 -50 -10 -57 -46 -81 -22 -15 -47 -40
-56 -57 -9 -17 -39 -57 -67 -89 -40 -44 -62 -61 -101 -73 -32 -9 -70 -33 -105
-64 l-54 -49 13 -43 c7 -24 13 -76 14 -117 l2 -75 -65 -20 -65 -21 1 -45 c1
-72 10 -94 58 -127 41 -29 44 -34 51 -92 6 -51 4 -64 -13 -88 -19 -27 -26 -46
-23 -69 0 -6 19 -19 40 -29 38 -17 101 -97 101 -129 0 -7 -13 -30 -30 -52 -41
-54 -39 -75 11 -103 22 -13 43 -29 45 -36 3 -7 -4 -33 -15 -57 -18 -40 -18
-49 -7 -103 15 -69 54 -147 97 -190 34 -36 35 -49 10 -105 -23 -51 -19 -65 20
-79 16 -6 43 -16 59 -22 39 -15 38 -36 -6 -93 -25 -33 -34 -54 -30 -69 7 -29
64 -97 81 -97 7 0 28 18 46 41 35 44 38 44 125 18 65 -20 77 -10 69 59 -6 56
-6 58 29 91 39 38 44 32 22 -20 -16 -37 -11 -52 30 -102 14 -17 26 -48 30 -78
7 -55 49 -129 88 -154 20 -14 31 -14 67 -5 23 7 58 9 78 5 53 -11 183 -6 199
7 10 9 12 26 7 69 -6 51 -5 59 13 68 12 6 41 11 65 11 59 0 71 16 63 79 -6 47
-5 50 46 115 57 72 66 71 67 -6 1 -20 6 -49 11 -63 10 -26 13 -27 63 -21 l52
7 38 -51 c21 -28 44 -49 50 -47 7 2 14 30 17 63 7 85 10 87 91 79 l69 -7 30
63 c24 51 30 79 31 134 l2 70 7 -66 c11 -92 50 -166 98 -185 59 -23 66 -29 88
-70 26 -49 45 -53 95 -18 37 26 42 26 80 14 49 -17 57 -10 68 59 5 29 15 57
22 62 8 5 45 9 82 9 62 0 71 -3 98 -29 23 -24 29 -38 29 -75 0 -48 16 -66 60
-66 14 0 24 -8 27 -20 5 -19 12 -21 72 -18 l66 3 5 60 c5 58 6 60 48 83 34 19
42 29 42 52 0 16 -5 32 -10 35 -23 14 -7 21 48 21 38 1 68 7 87 19 17 10 40
25 53 32 12 8 36 35 52 62 16 26 48 62 71 80 l41 34 -6 57 c-8 70 -1 79 81
110 51 19 70 21 147 15 49 -4 95 -9 102 -12 8 -3 18 5 24 19 6 13 24 30 39 39
21 12 32 31 45 77 9 33 23 62 30 65 8 3 31 -3 52 -14 60 -30 94 -33 144 -10
25 11 56 31 70 45 29 32 35 32 100 2 52 -24 80 -25 80 -2 0 6 -12 33 -26 60
-14 26 -24 49 -22 50 16 14 83 26 137 26 103 -1 136 -21 291 -179 137 -139
205 -193 317 -249 107 -54 191 -72 373 -81 177 -8 203 -15 285 -71 96 -66 202
-229 294 -450 38 -91 112 -192 178 -242 109 -82 210 -119 527 -189 388 -86
546 -138 781 -259 255 -131 442 -255 556 -370 135 -135 159 -218 135 -454 -19
-184 -43 -269 -142 -508 -97 -230 -141 -360 -160 -468 -18 -108 -9 -200 51
-505 56 -286 69 -393 62 -524 -7 -155 -28 -203 -134 -311 -130 -131 -224 -287
-314 -520 l-32 -85 -386 0 c-424 -1 -561 -10 -926 -66 -586 -90 -1139 -19
-2030 263 -368 116 -752 260 -1580 593 -319 128 -625 247 -680 264 -527 162
-1105 191 -1755 85 -335 -54 -717 -155 -997 -264 l-83 -31 0 -2020 0 -2019
10800 0 10800 0 0 2060 0 2059 -47 22 c-639 288 -1382 350 -2308 193 -167 -28
-464 -92 -596 -128 l-86 -24 -47 117 c-52 130 -73 239 -56 300 28 104 268 252
496 307 279 67 303 81 363 208 40 85 86 147 125 169 11 6 57 14 101 17 107 8
174 39 250 118 64 66 97 85 141 80 25 -3 29 -7 26 -31 -3 -27 -1 -28 27 -22
20 4 38 1 55 -10 21 -14 32 -15 56 -6 29 10 32 9 41 -18 12 -35 48 -55 85 -48
45 8 84 -11 84 -42 0 -36 81 -121 115 -121 17 0 23 -4 19 -14 -3 -8 3 -19 15
-26 12 -6 21 -20 21 -31 0 -27 23 -34 60 -18 20 10 30 21 30 36 0 47 85 56 92
10 2 -14 10 -22 23 -23 11 0 29 -4 39 -9 15 -6 23 -3 34 13 8 12 20 22 27 22
8 0 22 12 33 27 l19 26 7 -26 c5 -23 12 -27 41 -27 33 0 35 -2 35 -32 l0 -31
23 21 c13 12 33 22 45 22 17 0 22 6 22 25 0 47 28 27 39 -29 5 -21 14 -32 31
-36 18 -4 26 -14 28 -33 3 -22 9 -27 30 -28 15 0 44 -1 65 -3 41 -3 77 22 77
54 0 8 7 26 16 38 9 13 13 29 10 37 -3 8 -1 15 4 15 6 0 10 -13 10 -29 0 -36
13 -46 41 -31 16 9 24 8 38 -4 10 -9 23 -16 29 -16 17 0 27 49 13 63 -17 17
-13 34 10 40 17 5 21 11 16 33 -3 18 3 38 20 63 20 29 24 45 20 79 -4 35 -1
44 15 53 18 10 18 12 3 35 -18 27 -12 41 28 75 16 13 17 19 6 42 -11 23 -9 31
14 65 34 49 34 65 -2 79 -27 10 -28 12 -21 52 7 38 5 45 -19 67 -14 13 -31 24
-37 24 -19 0 -104 102 -104 125 0 13 7 36 15 51 30 59 6 102 -49 88 -18 -4
-26 -1 -30 14 -4 13 -23 25 -52 33 -29 9 -43 18 -39 26 3 7 8 20 11 28 4 10
-7 27 -30 48 -23 21 -36 42 -36 58 0 50 -22 64 -95 62 l-66 -2 -69 70 c-66 68
-84 77 -125 64 -14 -4 -33 3 -60 24 -116 88 -112 84 -111 124 1 35 -9 50 -39
60 -5 2 -2 16 8 31 l18 27 -29 11 c-27 10 -29 14 -19 35 15 34 -6 77 -35 70
-12 -4 -28 -1 -35 5 -10 8 -18 6 -34 -10 -26 -29 -53 -29 -44 -2 5 15 -4 33
-30 66 -20 25 -40 57 -44 72 -6 23 -14 28 -51 32 -38 4 -45 9 -53 35 -12 37
-35 65 -64 76 -20 8 -22 13 -16 55 7 50 -3 64 -44 64 -18 0 -23 6 -23 25 0 24
-2 24 -47 18 -27 -3 -54 -11 -62 -17 -28 -22 -63 -89 -58 -112 3 -17 0 -24
-12 -24 -9 0 -26 -7 -39 -15 -15 -11 -33 -14 -56 -10 -30 6 -37 3 -52 -19
l-17 -27 -23 22 c-20 19 -26 20 -39 9 -9 -8 -23 -27 -32 -43 l-15 -29 -18 28
c-45 74 -120 108 -184 84 -61 -23 -78 -35 -87 -59 -9 -23 -10 -23 -24 -5 -8
10 -15 27 -15 37 0 11 -8 21 -19 24 -10 2 -24 16 -30 30 -8 18 -17 24 -31 20
-12 -3 -20 0 -20 7 0 7 -6 21 -14 31 -11 16 -18 17 -38 8 -18 -8 -33 -8 -59 1
-21 8 -45 9 -58 4 -17 -6 -23 -3 -31 15 -13 34 -48 130 -54 149 -3 12 -20 18
-63 21 -32 3 -74 9 -95 12 -31 6 -38 4 -48 -14 -6 -12 -8 -27 -4 -34 4 -6 -3
-2 -15 11 -25 25 -76 30 -85 7 -4 -10 -14 -13 -35 -9 -25 5 -30 3 -33 -17 -4
-33 -43 -37 -73 -9 l-23 22 -11 -21 c-7 -13 -22 -21 -37 -21 -23 0 -25 -3 -19
-32 4 -23 3 -29 -4 -19 -8 12 -13 12 -37 -4 -16 -10 -29 -14 -31 -8 -2 6 -9
18 -16 27 -12 16 -15 15 -50 -8 l-37 -25 -15 30 c-13 25 -21 29 -49 27 -47 -3
-89 27 -83 58 5 28 -3 35 -66 59 -47 18 -49 18 -85 -1 -20 -10 -50 -19 -67
-19 -25 0 -31 -5 -40 -40 -10 -33 -12 -36 -17 -17 -5 18 -12 22 -40 20 -28 -3
-34 1 -36 20 -4 27 -23 29 -39 3 -8 -12 -24 -19 -45 -19 -18 -1 -49 -6 -68
-11 -47 -15 -44 -16 -74 29 -21 32 -32 40 -56 40 -16 0 -32 -4 -35 -10 -3 -5
-18 -10 -32 -10 -21 0 -24 -4 -20 -22 4 -14 -1 -29 -16 -44 -29 -31 -37 -30
-37 5 0 24 -6 31 -40 45 -23 9 -43 23 -46 31 -14 35 -64 -2 -64 -47 0 -14 -9
-33 -20 -43 -12 -10 -18 -26 -15 -34 5 -16 -18 10 -34 37 -12 21 -81 5 -81
-19 0 -11 -14 -26 -37 -37 -21 -11 -43 -33 -52 -53 -9 -20 -29 -40 -48 -48
-25 -11 -34 -23 -42 -57 -14 -54 -14 -101 -1 -109 19 -12 10 -25 -14 -19 -18
4 -27 1 -35 -15 -9 -16 -18 -19 -41 -14 -27 5 -30 3 -30 -20 0 -13 -7 -30 -15
-37 -11 -9 -14 -22 -10 -40 5 -22 1 -29 -20 -38 -21 -10 -24 -15 -15 -31 15
-29 13 -31 -24 -31 -44 0 -66 -9 -66 -25 0 -21 -16 -26 -43 -14 -30 13 -64 -2
-119 -55 -26 -24 -38 -45 -38 -63 0 -37 -14 -60 -25 -42 -6 9 -14 5 -31 -16
-18 -23 -26 -26 -37 -17 -8 7 -32 9 -65 5 -44 -5 -53 -10 -58 -30 -4 -13 -14
-27 -23 -33 -14 -8 -14 -12 -2 -31 7 -13 17 -35 21 -50 7 -24 5 -28 -16 -33
-13 -4 -24 -13 -24 -20 0 -8 -12 -23 -27 -34 -23 -17 -26 -23 -15 -33 18 -19
15 -29 -8 -29 -12 0 -24 -10 -30 -24 -7 -18 -20 -27 -52 -33 -51 -10 -62 -36
-40 -100 12 -38 12 -45 -4 -72 -10 -16 -28 -32 -41 -36 -18 -4 -23 -11 -18
-24 3 -10 -1 -24 -10 -31 -19 -16 -19 -34 -1 -49 16 -13 13 -69 -6 -107 -7
-15 -7 -28 1 -42 8 -16 8 -31 -3 -61 -11 -35 -11 -42 0 -52 20 -16 17 -34 -7
-50 l-20 -14 20 -48 c11 -26 27 -47 35 -47 22 0 39 -38 32 -72 -5 -23 -1 -31
18 -39 23 -11 46 -47 46 -73 0 -7 12 -18 26 -24 14 -7 22 -17 19 -23 -13 -21
6 -57 41 -78 52 -31 70 -27 94 19 25 49 49 51 83 10 15 -18 35 -30 49 -30 17
0 27 -8 35 -30 13 -34 54 -50 79 -29 16 13 15 50 -1 91 -5 13 0 21 19 29 22
10 29 9 45 -5 15 -14 24 -15 40 -7 11 6 33 11 49 11 16 0 36 8 44 18 22 25 40
126 28 157 -8 22 -7 25 12 25 12 0 32 -10 45 -21 l22 -22 10 26 c5 14 19 28
30 32 12 3 21 13 21 20 0 10 18 6 66 -16 36 -17 88 -33 114 -36 l48 -6 11 -56
c6 -31 14 -67 18 -80 4 -17 3 -22 -5 -17 -7 4 -12 3 -12 -3 0 -20 96 -128 260
-292 220 -221 328 -293 517 -345 118 -32 151 -50 224 -124 108 -109 163 -253
157 -408 l-3 -72 -265 -89 c-288 -97 -567 -199 -925 -339 -274 -107 -402 -151
-578 -197 -400 -104 -764 -141 -1282 -132 -348 6 -488 16 -1200 88 -275 27
-569 53 -654 58 -563 32 -1284 -137 -2136 -501 -227 -97 -607 -280 -773 -371
l-103 -58 -89 75 c-49 41 -115 93 -148 115 -57 39 -59 41 -65 93 -3 29 -28
133 -56 231 -57 199 -83 311 -107 454 -22 134 -30 588 -15 798 11 138 10 170
-3 231 -77 360 -63 888 31 1189 55 176 101 262 224 415 152 192 287 304 442
369 43 17 146 49 229 70 198 51 275 79 431 158 327 166 639 417 940 755 75 84
188 202 251 261 113 105 295 313 356 405 34 52 28 72 -16 49 l-29 -15 47 187
c26 102 47 195 48 207 0 19 8 22 78 27 109 9 239 48 372 115 63 31 118 58 122
60 5 2 8 -10 8 -26 0 -35 15 -50 61 -58 48 -9 56 -18 74 -80 19 -67 35 -69 89
-10 38 42 45 45 103 49 l62 5 -20 -49 c-23 -59 -25 -143 -5 -220 8 -31 18 -80
22 -110 6 -46 13 -60 51 -96 46 -46 60 -49 128 -32 42 11 45 10 91 -25 26 -20
51 -36 56 -36 5 0 27 18 49 40 27 27 49 40 66 40 25 0 109 -34 117 -48 8 -13
-21 -128 -43 -170 -20 -40 -21 -45 -7 -67 23 -36 80 -75 107 -75 13 0 46 13
74 28 52 28 49 23 71 130 5 23 7 24 74 17 l69 -7 21 44 c33 64 96 117 142 118
56 0 87 -15 93 -47 8 -37 46 -113 68 -135 27 -28 108 -24 144 6 15 13 47 33
71 45 59 30 86 91 77 173 l-7 57 44 11 c23 6 51 13 61 16 13 4 17 16 17 51 0
68 49 149 105 174 65 29 69 38 49 103 -16 51 -16 57 -1 89 10 19 17 40 17 45
0 19 30 41 70 52 47 13 58 27 105 145 l36 90 -29 25 c-16 14 -45 37 -63 52
l-34 26 48 50 c53 54 53 59 6 121 -27 34 -26 145 1 186 26 39 25 66 -2 101
-19 23 -23 42 -23 99 -1 44 -7 84 -18 107 l-17 37 45 45 c51 50 51 62 -2 102
-33 25 -35 29 -30 73 7 65 -4 81 -59 81 -43 0 -46 2 -61 38 -8 20 -28 56 -44
80 -34 51 -35 61 -10 110 11 20 27 62 36 92 15 47 16 64 6 112 -7 31 -17 61
-24 66 -7 5 -34 12 -62 15 -27 3 -76 17 -107 31 -52 23 -58 29 -68 68 -17 65
-18 68 -37 69 -26 2 -25 2 -67 -5 l-38 -7 31 55 32 56 -23 21 c-13 11 -39 31
-58 43 -26 16 -36 30 -38 54 -4 39 -37 67 -91 76 l-39 6 18 71 c14 55 27 81
54 108 20 20 36 44 36 52 0 9 -20 34 -44 56 -34 31 -46 51 -56 92 -7 29 -19
55 -27 58 -8 3 -40 0 -70 -7 -53 -13 -57 -13 -103 13 -26 15 -51 27 -54 27 -3
0 -24 -16 -46 -36 -23 -21 -46 -34 -55 -31 -8 4 -29 31 -46 62 -18 31 -38 59
-46 62 -8 3 -27 -6 -42 -21 l-27 -26 -12 45 c-7 25 -12 67 -12 94 0 79 -63
145 -282 297 -74 51 -82 51 -145 -9 -19 -18 -38 -27 -47 -24 -9 4 -28 32 -43
64 -28 58 -28 58 -83 66 -30 5 -83 8 -117 7 -35 -1 -63 2 -63 7 0 4 12 31 28
60 33 64 26 82 -39 100 -69 20 -75 31 -48 92 l22 52 -42 42 c-38 40 -41 46
-41 100 0 71 -13 78 -79 47 -27 -12 -56 -20 -66 -19 -10 3 -25 24 -36 53 -27
72 -30 74 -99 41 -33 -16 -63 -26 -66 -22 -3 3 9 27 26 53 44 63 51 151 21
238 -12 33 -21 75 -21 95 0 58 -19 82 -77 101 -74 24 -153 106 -153 159 0 33
-40 68 -130 114 -91 46 -87 41 -78 117 3 23 0 25 -31 22 -18 -2 -55 6 -83 18
-45 19 -88 20 -88 1 0 -4 -25 -45 -56 -91 -31 -46 -60 -96 -65 -110 -7 -23 -7
-22 -8 10 0 20 8 45 19 60 31 39 25 63 -24 97 -36 26 -44 37 -50 74 -3 24 -9
62 -12 84 -4 28 -18 52 -47 83 -23 23 -47 42 -53 42 -7 0 -28 -22 -48 -49 -27
-39 -43 -51 -71 -57 -19 -3 -37 -10 -40 -14 -3 -5 -28 -16 -55 -25 -60 -20
-72 -38 -60 -91 11 -44 6 -70 -14 -77 -17 -7 -136 104 -136 126 0 8 6 33 14
55 13 36 13 42 0 53 -11 9 -21 9 -40 0 -39 -17 -66 -13 -95 15 -22 21 -40 27
-84 30 -69 5 -89 -5 -115 -59 -18 -37 -32 -60 -83 -132 -13 -18 -18 -19 -61
-7 -25 6 -59 12 -74 12 -16 0 -37 7 -48 15 -10 8 -34 15 -52 15 -18 0 -42 5
-53 11 -14 7 -29 7 -54 -2 -40 -15 -54 -7 -92 54 -42 66 -74 58 -88 -23 -4
-21 -12 -46 -20 -56 -12 -17 -15 -17 -73 1 -75 22 -83 17 -108 -68 l-18 -62
-7 55 c-9 79 -36 173 -55 187 -12 9 -25 8 -56 -3 -56 -19 -76 -18 -117 9 -83
55 -135 87 -140 87 -3 -1 -42 -14 -86 -29z m-3030 -851 c15 -29 12 -80 -5 -80
-14 0 -32 59 -26 85 8 32 12 32 31 -5z m1676 -1992 c16 -14 29 -31 29 -37 0
-6 -18 -31 -41 -56 -47 -51 -46 -69 6 -110 32 -24 35 -30 35 -80 0 -70 19 -86
95 -78 l52 6 23 -91 c25 -105 67 -197 102 -229 13 -13 45 -27 71 -32 26 -5 57
-17 68 -27 52 -47 148 -270 155 -362 2 -31 10 -65 17 -76 8 -12 37 -79 66
-151 58 -144 118 -254 196 -361 128 -173 305 -346 452 -442 l73 -47 29 -90
c93 -281 153 -554 155 -705 2 -169 -33 -223 -237 -362 -67 -45 -155 -116 -195
-156 -77 -77 -356 -385 -552 -610 l-115 -131 -6 257 c-5 226 -9 266 -28 332
-37 123 -99 273 -182 439 -129 259 -241 414 -363 505 -77 57 -112 134 -186
411 -84 310 -116 383 -201 458 -41 36 -56 58 -74 109 -12 35 -65 155 -117 268
-144 308 -160 376 -110 452 53 82 33 152 -113 394 -115 189 -125 214 -125 312
0 81 11 107 24 56 9 -36 36 -74 52 -74 7 0 18 8 23 19 17 31 39 32 91 6 87
-44 100 -33 64 55 -29 71 -25 80 37 99 31 9 44 20 52 42 6 16 14 29 17 29 3 0
15 -18 28 -40 14 -25 38 -48 65 -61 23 -12 68 -37 99 -57 67 -40 78 -37 102
34 19 57 99 151 134 159 15 3 54 23 87 44 59 38 61 38 89 22 16 -9 41 -28 57
-43z m-984 -110 c-3 -8 -6 -5 -6 6 -1 11 2 17 5 13 3 -3 4 -12 1 -19z m-20
-70 c-3 -8 -6 -5 -6 6 -1 11 2 17 5 13 3 -3 4 -12 1 -19z m-355 -204 c-26 -51
-30 -69 -21 -80 14 -17 73 -34 121 -34 43 0 58 19 58 75 0 49 16 75 44 75 20
0 25 -6 31 -40 10 -57 81 -197 163 -322 65 -98 102 -160 102 -172 0 -9 -95 25
-109 39 -8 8 -20 29 -25 46 -16 47 -49 66 -172 97 -61 15 -123 36 -138 46 -38
25 -80 94 -116 195 -29 80 -30 88 -16 112 8 14 18 45 22 68 l7 43 41 -41 40
-41 -32 -66z m1754 93 c-29 -49 -34 -108 -11 -127 21 -17 19 -52 -7 -105 -24
-48 -34 -55 -42 -27 -6 20 -46 211 -46 221 0 4 15 5 34 3 31 -4 36 0 61 42 15
26 30 45 32 42 3 -2 -7 -24 -21 -49z m527 -137 l-29 -50 -33 41 c-26 31 -36
38 -43 28 -5 -9 -7 4 -6 36 3 48 4 50 48 72 l45 21 23 -49 23 -49 -28 -50z
m-2369 -7 c3 -26 16 -83 28 -127 34 -128 79 -162 261 -200 101 -20 117 -30
117 -65 0 -35 41 -73 97 -91 21 -7 46 -17 56 -22 18 -9 18 -10 -1 -31 -58 -64
-57 -120 2 -230 25 -45 63 -127 84 -182 39 -99 90 -291 79 -301 -3 -3 -36 4
-74 15 -104 31 -233 57 -393 81 -87 13 -163 30 -190 43 -57 27 -195 164 -289
286 -39 51 -76 101 -81 110 -10 17 -7 19 -80 -36 -57 -44 -110 -45 -138 -5
-25 35 -38 84 -52 202 -12 100 -30 152 -79 224 -17 25 -31 47 -31 50 0 3 18
11 40 17 62 19 67 31 41 93 -24 59 -22 72 16 100 l26 19 -5 -47 c-7 -55 12
-86 73 -116 57 -29 74 -26 108 23 45 66 53 70 101 57 58 -16 77 -6 101 51 20
46 25 50 76 65 34 10 59 24 69 40 23 35 30 30 38 -23z m1959 27 c11 0 9 -44
-5 -95 -16 -58 -4 -68 71 -61 40 4 63 12 92 36 21 17 59 39 84 50 l45 19 -14
-28 c-21 -39 -110 -265 -131 -331 -10 -30 -21 -59 -25 -63 -3 -4 -21 39 -39
97 -26 87 -38 110 -67 135 -26 23 -44 31 -74 31 -21 0 -41 4 -44 8 -2 4 9 37
24 72 33 74 36 97 15 127 -14 20 -14 21 23 12 20 -5 40 -9 45 -9z m971 -225
c-5 -22 27 -65 48 -65 13 0 68 -62 68 -76 0 -7 12 -26 26 -43 24 -29 24 -32
10 -53 -24 -34 -20 -65 19 -134 19 -34 35 -64 35 -67 0 -3 -18 -8 -40 -12 -45
-8 -91 -47 -107 -92 -6 -15 -18 -68 -28 -118 -32 -175 -114 -382 -207 -518
-45 -66 -38 -66 -141 -5 -105 60 -194 154 -245 257 -46 91 -49 111 -27 164 15
36 15 36 -24 80 -41 49 -40 42 -62 260 -12 118 -8 177 21 277 18 61 23 64 65
36 20 -14 49 -45 64 -68 43 -67 51 -71 105 -51 l47 18 41 -48 c22 -26 47 -47
54 -45 8 2 36 46 63 98 48 94 49 95 97 109 58 16 64 23 64 76 0 22 8 59 18 83
l17 42 12 -41 c7 -23 10 -52 7 -64z m-534 61 c0 -6 -16 -28 -36 -47 l-36 -34
26 53 c24 48 46 61 46 28z m-3227 -281 c18 -16 48 -38 65 -47 24 -13 32 -25
36 -55 29 -197 74 -312 156 -394 74 -74 142 -77 227 -10 l48 37 3 -35 c6 -82
88 -202 197 -287 75 -58 280 -158 450 -219 147 -53 379 -115 430 -115 43 0 84
-15 113 -43 58 -54 80 -144 92 -372 13 -258 20 -275 189 -415 290 -239 405
-442 429 -754 12 -153 -11 -452 -38 -496 -5 -8 -34 4 -101 45 -269 163 -659
308 -1179 440 -218 56 -341 119 -463 239 -86 85 -138 162 -228 340 -45 89 -97
182 -115 209 -21 28 -34 59 -34 77 0 65 -88 186 -326 450 -203 224 -278 313
-328 390 -57 86 -69 123 -56 171 14 52 -6 99 -71 164 l-49 51 40 39 c45 44 47
53 23 98 -17 33 -27 135 -18 175 4 15 11 22 20 18 8 -2 31 7 52 21 37 25 40
25 101 13 86 -17 98 -6 83 74 -7 36 -7 65 -1 79 5 12 14 40 20 63 9 37 15 43
71 69 l62 28 -6 66 -6 66 39 -75 c22 -41 55 -88 73 -105z m4230 119 l-37 -56
29 -56 c17 -32 46 -76 67 -98 46 -53 60 -133 35 -200 -14 -37 -14 -51 -2 -106
17 -81 41 -147 61 -170 20 -21 105 -51 136 -46 14 2 31 18 45 43 l23 40 0 -80
c0 -44 4 -86 8 -93 5 -7 32 -20 62 -30 48 -15 57 -23 86 -72 18 -30 33 -64 34
-76 0 -32 10 -35 38 -14 49 39 57 31 80 -97 26 -139 29 -308 7 -399 -17 -74
-87 -252 -121 -312 -20 -33 -40 -50 -95 -78 -84 -42 -261 -161 -467 -313 -83
-61 -152 -111 -155 -111 -2 0 -7 24 -11 53 -25 194 -106 503 -168 637 -17 36
-52 116 -79 179 -28 63 -65 136 -84 162 l-33 47 25 52 c14 29 55 174 93 324
89 355 115 413 198 435 80 22 120 97 146 276 9 61 19 125 22 143 4 25 13 37
42 51 55 28 56 26 15 -35z m1793 -96 c-4 -13 -11 -50 -16 -83 -5 -33 -12 -76
-16 -97 -9 -49 11 -59 90 -47 57 9 60 9 107 -23 27 -18 47 -36 46 -40 -1 -3
-76 -59 -167 -123 -240 -171 -336 -250 -359 -299 -29 -60 -34 -107 -21 -172
25 -121 86 -223 220 -369 149 -164 160 -215 81 -403 -27 -65 -61 -155 -76
-202 -60 -187 -125 -262 -316 -369 -312 -174 -378 -222 -570 -413 -100 -99
-141 -132 -195 -159 l-69 -34 -467 -3 c-258 -2 -468 0 -468 3 0 3 33 45 73 93
92 109 179 227 202 271 9 18 19 59 22 90 6 68 20 109 43 121 9 5 48 12 86 15
152 14 301 86 538 257 220 159 254 199 292 343 27 103 25 362 -5 550 -43 270
-42 291 16 326 30 19 56 24 140 29 l103 5 -65 74 c-44 50 -64 80 -59 90 3 9 8
34 11 56 7 51 20 75 39 75 12 0 13 -8 8 -36 -6 -31 -2 -40 28 -72 19 -20 54
-65 78 -99 24 -35 47 -63 51 -63 5 0 28 17 50 38 23 20 57 46 75 57 17 11 51
45 74 75 44 59 45 69 20 155 -11 35 -9 47 10 98 20 53 26 60 78 87 31 16 72
47 90 69 24 29 42 42 70 46 62 11 66 13 97 60 34 50 40 55 31 23z m-1981 -72
c-3 -17 -7 -52 -10 -78 -4 -27 -9 -48 -13 -48 -13 0 -62 87 -62 109 0 42 16
57 54 53 32 -4 34 -6 31 -36z m2287 -468 c-3 -43 -12 -74 -28 -98 -12 -19 -28
-64 -34 -100 -19 -110 -58 -248 -98 -341 -20 -49 -39 -89 -42 -89 -7 0 -114
168 -143 225 -65 130 -59 174 38 269 57 56 271 196 300 196 8 0 10 -19 7 -62z
m-6892 -243 c10 -13 9 -15 -9 -15 -12 0 -21 6 -21 15 0 8 4 15 9 15 5 0 14 -7
21 -15z m6937 -125 c28 -60 48 -84 80 -94 12 -4 27 -13 33 -21 7 -8 21 -15 31
-15 21 0 32 20 49 87 14 55 35 66 109 57 l58 -6 26 -54 c15 -29 24 -60 21 -68
-3 -8 -28 -29 -55 -47 -49 -31 -53 -36 -50 -74 2 -16 -42 -46 -221 -152 -122
-73 -224 -130 -226 -128 -2 2 -7 20 -12 39 -6 29 4 87 56 293 35 141 64 259
65 262 0 3 3 -1 6 -9 3 -8 16 -40 30 -70z m-6912 33 c-29 -72 -12 -131 57
-208 148 -164 513 -654 497 -669 -8 -8 -366 15 -454 29 -207 33 -381 105 -520
215 -76 61 -77 62 -70 98 8 45 15 52 67 72 64 24 68 40 25 96 -40 52 -44 66
-22 104 20 35 18 63 -6 110 l-22 41 24 25 c25 26 35 22 41 -15 1 -13 12 -30
23 -37 32 -20 120 15 170 68 67 72 93 88 148 88 43 0 48 -2 42 -17z m-879
-420 c-7 -30 -40 -63 -62 -63 -24 0 -16 21 22 56 43 41 48 42 40 7z m14114
-1672 c0 -6 -4 -13 -10 -16 -5 -3 -10 1 -10 9 0 9 5 16 10 16 6 0 10 -4 10 -9z
m-601 -772 c22 -11 50 -37 62 -57 13 -21 24 -39 25 -40 4 -6 94 50 94 58 0 5
13 2 29 -8 25 -14 28 -20 20 -40 -5 -13 -9 -25 -9 -26 0 -11 93 3 101 15 6 10
9 6 9 -16 0 -19 -20 -65 -50 -119 -51 -89 -56 -107 -44 -183 5 -36 -1 -56 -40
-142 -25 -55 -46 -105 -46 -110 0 -5 -17 -30 -38 -54 -31 -35 -44 -65 -66
-143 -39 -141 -43 -150 -105 -213 -35 -36 -74 -92 -104 -148 -74 -141 -89
-193 -96 -317 l-6 -108 -130 146 c-71 81 -158 167 -193 193 -35 25 -72 57 -82
71 -34 42 -25 138 30 322 15 51 26 69 49 83 47 28 152 136 192 197 41 65 99
194 99 224 1 36 53 131 75 135 31 5 54 31 67 75 13 47 27 68 38 61 16 -10 40
7 40 28 0 11 7 29 17 39 15 17 15 19 -2 38 -17 19 -17 21 0 40 22 24 16 24 64
-1z m486 -175 c-9 -50 -41 -82 -96 -98 -30 -9 -62 -28 -80 -47 -47 -51 -45
-26 4 51 25 40 49 85 52 101 8 36 29 33 33 -4 3 -20 9 -27 25 -27 40 0 52 15
39 45 -10 22 -10 30 0 42 10 13 13 11 21 -9 4 -12 6 -37 2 -54z m-879 41 c6
-15 -12 -45 -27 -45 -11 0 -22 38 -14 50 9 15 35 12 41 -5z m203 -17 c-1 -13
-4 -34 -8 -48 l-7 -25 -12 23 c-9 15 -10 28 -3 41 6 10 7 21 4 25 -3 3 1 6 10
6 11 0 17 -8 16 -22z m-59 -30 c0 -13 4 -30 10 -38 7 -11 2 -17 -20 -26 -21
-9 -32 -24 -41 -53 -7 -23 -15 -39 -17 -36 -8 7 -61 145 -56 145 2 0 21 -9 42
-20 49 -26 70 -19 64 20 -3 18 0 30 7 30 6 0 11 -10 11 -22z m821 -30 c8 -14
17 -18 34 -14 17 4 27 0 39 -19 16 -24 18 -25 46 -10 19 10 30 23 30 37 0 16
3 19 11 11 8 -8 8 -17 0 -31 -9 -17 -7 -23 9 -35 18 -12 18 -15 4 -35 -8 -12
-20 -50 -25 -84 -6 -35 -17 -70 -25 -78 -12 -13 -18 -12 -46 4 l-31 19 -20
-29 c-38 -54 -122 -132 -147 -137 -14 -3 -63 -12 -110 -21 -47 -9 -95 -19
-107 -22 -20 -6 -21 -4 -12 37 6 24 19 64 31 89 49 108 48 105 33 133 -12 24
-12 26 17 36 16 6 32 20 35 30 5 20 11 23 68 36 47 10 73 32 80 67 14 69 12
68 45 51 17 -8 35 -24 41 -35z m-1177 -76 c9 -2 25 -21 36 -43 21 -41 37 -49
46 -24 4 8 18 15 33 15 17 0 36 10 49 25 12 14 26 25 31 25 26 0 27 -194 1
-225 -7 -8 -13 -33 -14 -54 -2 -25 -12 -52 -30 -75 -33 -43 -100 -91 -116 -81
-27 16 -80 149 -104 258 -4 17 -16 31 -32 37 -23 9 -24 11 -10 38 9 18 11 33
5 44 -7 12 -1 26 26 54 20 21 35 48 36 63 1 22 3 19 13 -14 7 -23 20 -41 30
-43z m180 52 c3 -8 2 -12 -4 -9 -6 3 -10 10 -10 16 0 14 7 11 14 -7z m-382
-107 c9 -71 30 -113 61 -121 29 -7 40 -31 72 -156 14 -54 30 -111 35 -125 9
-22 4 -40 -29 -109 -45 -95 -76 -189 -92 -282 l-11 -65 -37 28 c-19 15 -83 60
-140 98 -100 67 -106 73 -129 130 -25 63 -32 139 -19 218 7 40 11 47 26 42 14
-4 22 2 31 25 7 18 22 33 36 36 23 6 28 15 25 42 -2 9 4 12 17 8 56 -18 93 35
90 129 -2 40 3 58 25 89 21 31 25 42 16 58 -9 16 -8 19 3 16 7 -3 16 -28 20
-61z m1693 13 c18 0 35 -39 35 -81 0 -26 3 -29 33 -29 54 0 71 -19 63 -70 -4
-26 -2 -47 5 -56 8 -10 6 -20 -10 -40 -12 -15 -21 -41 -21 -61 0 -43 -29 -85
-149 -218 -75 -83 -102 -123 -157 -230 -37 -71 -80 -146 -95 -166 -46 -58
-114 -95 -236 -128 -161 -44 -275 -85 -378 -136 -49 -24 -92 -42 -95 -39 -3 3
-5 65 -5 137 0 167 13 197 131 313 46 45 88 94 94 108 5 15 10 53 10 84 0 65
14 125 35 145 8 8 34 18 59 21 65 10 205 59 275 96 71 38 108 75 125 124 11
32 14 35 26 21 17 -21 73 -19 93 3 24 26 57 103 57 134 0 18 8 33 23 43 13 8
30 27 37 41 14 24 14 25 22 5 4 -12 14 -21 23 -21z m-2375 -30 c7 0 23 -10 36
-22 13 -13 33 -31 45 -41 18 -16 20 -26 15 -62 -7 -41 -6 -43 41 -82 l48 -40
33 43 c18 25 30 49 27 54 -3 6 -2 10 3 10 23 0 20 -55 -5 -87 l-25 -33 45 0
c68 0 72 -11 57 -135 -15 -124 -9 -221 16 -264 21 -36 150 -131 218 -161 25
-12 65 -24 88 -28 39 -7 41 -10 53 -53 7 -29 31 -72 64 -113 l53 -66 -175 0
c-97 0 -188 5 -202 10 -15 6 -63 43 -106 83 -47 44 -117 95 -174 128 -53 30
-105 64 -117 76 -24 26 -79 173 -85 228 -4 37 0 46 51 105 59 69 91 141 81
183 -8 31 -38 59 -137 129 -81 58 -87 78 -23 78 41 0 44 3 35 51 -7 37 -6 39
10 24 9 -8 22 -15 30 -15z m757 4 c3 -8 -2 -23 -11 -32 -15 -15 -16 -14 -16
16 0 33 16 43 27 16z m-866 -193 c24 -15 55 -40 68 -54 29 -32 25 -65 -18
-133 l-29 -47 -15 30 c-13 25 -33 91 -64 211 -7 29 4 28 58 -7z m-38 -213 c13
-53 21 -102 17 -108 -9 -15 -170 77 -170 97 0 7 -11 20 -24 29 -22 13 -23 19
-14 40 8 17 19 24 40 24 27 0 30 -3 44 -48 6 -19 42 3 62 38 9 16 17 28 18 27
2 -1 13 -45 27 -99z m2736 68 c34 -32 81 -45 81 -22 0 9 4 16 9 16 13 0 6
-107 -8 -124 -11 -13 -9 -17 13 -27 35 -16 33 -43 -7 -73 -74 -57 -198 -90
-310 -84 l-58 3 49 70 c27 39 77 104 111 145 45 54 61 81 58 98 -6 31 29 30
62 -2z m301 -157 c0 -6 -4 -7 -10 -4 -5 3 -10 11 -10 16 0 6 5 7 10 4 6 -3 10
-11 10 -16z"/>
</g>
</svg>
